<svg width="600" height="400" viewBox="0 0 600 400" xmlns="http://www.w3.org/2000/svg">
  <!-- Фоновый треугольник -->
  <polygon points="300,50 550,350 50,350" stroke="#00e5ff" stroke-width="2" fill="#0a1929" opacity="0.3" />
  
  <!-- Стилизованный треугольный логотип -->
  <polygon points="300,100 400,250 200,250" stroke="#00e5ff" stroke-width="4" fill="none" />
  <text x="300" y="300" font-family="Arial, sans-serif" font-size="36" font-weight="bold" fill="#00e5ff" text-anchor="middle">RIN</text>
  
  <!-- Силуэт аниме-персонажа (стилизованный) -->
  <path d="M120,200 Q150,170 180,190 Q200,150 220,170 Q240,150 250,180 Q280,160 290,190 L290,300 L120,300 Z" fill="#00e5ff" opacity="0.1" />
  <path d="M150,180 Q170,200 190,180" stroke="#00e5ff" stroke-width="1.5" fill="none" />
  <path d="M220,180 Q240,200 260,180" stroke="#00e5ff" stroke-width="1.5" fill="none" />
  
  <!-- Волосы персонажа -->
  <path d="M120,200 Q170,120 220,170 Q270,130 290,190" stroke="#00e5ff" stroke-width="2" fill="none" />
</svg>
